<svg width="24" height="25" viewBox="0 0 24 25" fill="none" xmlns="http://www.w3.org/2000/svg">
<path d="M15.71 13.5689C15.801 13.4738 15.8724 13.3616 15.92 13.2389C16.02 12.9954 16.02 12.7224 15.92 12.4789C15.8724 12.3561 15.801 12.244 15.71 12.1489L12.71 9.14889C12.5217 8.96059 12.2663 8.8548 12 8.8548C11.7337 8.8548 11.4783 8.96059 11.29 9.14889C11.1017 9.3372 10.9959 9.59259 10.9959 9.85889C10.9959 10.1252 11.1017 10.3806 11.29 10.5689L12.59 11.8589H9C8.73479 11.8589 8.48043 11.9643 8.2929 12.1518C8.10536 12.3393 8 12.5937 8 12.8589C8 13.1241 8.10536 13.3785 8.2929 13.566C8.48043 13.7535 8.73479 13.8589 9 13.8589H12.59L11.29 15.1489C11.1963 15.2419 11.1219 15.3525 11.0711 15.4743C11.0203 15.5962 10.9942 15.7269 10.9942 15.8589C10.9942 15.9909 11.0203 16.1216 11.0711 16.2435C11.1219 16.3653 11.1963 16.4759 11.29 16.5689C11.383 16.6626 11.4936 16.737 11.6154 16.7878C11.7373 16.8386 11.868 16.8647 12 16.8647C12.132 16.8647 12.2627 16.8386 12.3846 16.7878C12.5064 16.737 12.617 16.6626 12.71 16.5689L15.71 13.5689ZM22 12.8589C22 10.8811 21.4135 8.94768 20.3147 7.30319C19.2159 5.6587 17.6541 4.37697 15.8268 3.6201C13.9996 2.86322 11.9889 2.66519 10.0491 3.05104C8.10929 3.43689 6.32746 4.3893 4.92894 5.78782C3.53041 7.18635 2.578 8.96818 2.19215 10.908C1.8063 12.8478 2.00433 14.8585 2.76121 16.6857C3.51809 18.513 4.79981 20.0748 6.4443 21.1736C8.08879 22.2724 10.0222 22.8589 12 22.8589C14.6522 22.8589 17.1957 21.8053 19.0711 19.93C20.9464 18.0546 22 15.5111 22 12.8589ZM4 12.8589C4 11.2766 4.4692 9.72992 5.34825 8.41433C6.2273 7.09874 7.47673 6.07336 8.93854 5.46786C10.4003 4.86235 12.0089 4.70393 13.5607 5.01261C15.1126 5.32129 16.538 6.08322 17.6569 7.20204C18.7757 8.32086 19.5376 9.74632 19.8463 11.2982C20.155 12.85 19.9965 14.4586 19.391 15.9204C18.7855 17.3822 17.7602 18.6316 16.4446 19.5107C15.129 20.3897 13.5823 20.8589 12 20.8589C9.87827 20.8589 7.84344 20.016 6.34315 18.5157C4.84286 17.0155 4 14.9806 4 12.8589Z" fill="#fff"/>
</svg>
