<svg width="16" height="27" viewBox="0 0 16 27" fill="none" xmlns="http://www.w3.org/2000/svg">
<path d="M14.6087 0.632923L11.1802 0.627441C7.32839 0.627441 4.83917 3.17221 4.83917 7.11091V10.1002H1.39195C1.09406 10.1002 0.852844 10.3409 0.852844 10.6377V14.9688C0.852844 15.2657 1.09434 15.506 1.39195 15.506H4.83917V26.435C4.83917 26.7318 5.08039 26.9721 5.37827 26.9721H9.87591C10.1738 26.9721 10.415 26.7315 10.415 26.435V15.506H14.4456C14.7435 15.506 14.9847 15.2657 14.9847 14.9688L14.9864 10.6377C14.9864 10.4952 14.9294 10.3587 14.8285 10.2578C14.7276 10.157 14.59 10.1002 14.447 10.1002H10.415V7.56614C10.415 6.34816 10.7063 5.72985 12.2986 5.72985L14.6082 5.72903C14.9058 5.72903 15.147 5.4884 15.147 5.19185V1.17011C15.147 0.873833 14.9061 0.633471 14.6087 0.632923Z" fill="#3B5999"/>
</svg>
