<svg width="12" height="11" viewBox="0 0 12 11" fill="none" xmlns="http://www.w3.org/2000/svg">
<path d="M11.5317 1.00116C11.3726 0.820891 11.1146 0.750196 10.8742 0.813821L10.8459 0.820891L6.30025 2.70137L1.84294 0.83503L1.83234 0.824426L1.75811 0.803217C1.52128 0.739592 1.26325 0.810287 1.10065 0.990558C0.913307 1.19911 0.87796 1.5031 1.01935 1.74346L2.23176 3.85723L5.71702 10.2445C5.83013 10.4425 6.05635 10.5732 6.29318 10.5732C6.5194 10.5732 6.72088 10.4531 6.83753 10.2445L10.3829 3.86784L11.6094 1.75406C11.7508 1.5137 11.719 1.20971 11.5317 1.00116ZM11.157 1.49249L9.92689 3.6098L6.97185 8.92958L9.02907 2.13935L11.0191 1.31575C11.0651 1.30515 11.1146 1.31929 11.1428 1.3511C11.1782 1.38998 11.1853 1.44654 11.157 1.49249ZM4.5046 3.45074L4.18294 2.38325L5.61804 2.98415L4.5046 3.45074ZM2.69128 3.60273L1.4718 1.48189C1.44705 1.43594 1.45059 1.37938 1.48593 1.3405C1.50714 1.31575 1.54249 1.30515 1.57784 1.30515C1.58844 1.30515 1.59905 1.30515 1.60612 1.30868L3.55376 2.12167L4.01681 3.65575L2.95992 4.10113L2.69128 3.60273ZM4.17234 4.15768L5.63925 9.00735L3.21089 4.56064L4.17234 4.15768ZM4.66013 3.9562L6.36741 3.23865L8.40342 2.39738L6.29671 9.36082L4.66013 3.9562Z" fill="white"/>
</svg>
