<svg width="21" height="21" viewBox="0 0 21 21" fill="none" xmlns="http://www.w3.org/2000/svg">
<path d="M12.5708 9.76782H10.9041V6.43449C10.9041 6.21348 10.8163 6.00151 10.66 5.84523C10.5037 5.68895 10.2918 5.60116 10.0708 5.60116C9.84975 5.60116 9.63779 5.68895 9.48151 5.84523C9.32523 6.00151 9.23743 6.21348 9.23743 6.43449V10.6012C9.23743 10.8222 9.32523 11.0341 9.48151 11.1904C9.63779 11.3467 9.84975 11.4345 10.0708 11.4345H12.5708C12.7918 11.4345 13.0037 11.3467 13.16 11.1904C13.3163 11.0341 13.4041 10.8222 13.4041 10.6012C13.4041 10.3801 13.3163 10.1682 13.16 10.0119C13.0037 9.85562 12.7918 9.76782 12.5708 9.76782ZM10.0708 2.26782C8.42259 2.26782 6.81142 2.75656 5.44101 3.67224C4.0706 4.58792 3.0025 5.88941 2.37177 7.41213C1.74104 8.93484 1.57601 10.6104 1.89755 12.2269C2.2191 13.8434 3.01277 15.3283 4.17821 16.4937C5.34364 17.6592 6.8285 18.4528 8.44501 18.7744C10.0615 19.0959 11.7371 18.9309 13.2598 18.3002C14.7825 17.6694 16.084 16.6013 16.9997 15.2309C17.9154 13.8605 18.4041 12.2493 18.4041 10.6012C18.4041 9.50681 18.1885 8.42317 17.7698 7.41213C17.351 6.40108 16.7371 5.48242 15.9633 4.7086C15.1895 3.93478 14.2708 3.32095 13.2598 2.90216C12.2487 2.48337 11.1651 2.26782 10.0708 2.26782ZM10.0708 17.2678C8.75222 17.2678 7.46329 16.8768 6.36696 16.1443C5.27063 15.4117 4.41615 14.3706 3.91157 13.1524C3.40698 11.9342 3.27496 10.5938 3.5322 9.30055C3.78943 8.00735 4.42437 6.81946 5.35672 5.88711C6.28907 4.95476 7.47696 4.31982 8.77016 4.06259C10.0634 3.80535 11.4038 3.93737 12.622 4.44196C13.8402 4.94654 14.8814 5.80103 15.6139 6.89735C16.3464 7.99368 16.7374 9.28261 16.7374 10.6012C16.7374 12.3693 16.0351 14.065 14.7848 15.3152C13.5346 16.5654 11.8389 17.2678 10.0708 17.2678Z" fill="#273138"/>
</svg>
