<svg width="20" height="17" viewBox="0 0 20 17" fill="none" xmlns="http://www.w3.org/2000/svg">
<path d="M17 0.858887H3C2.20435 0.858887 1.44129 1.17496 0.87868 1.73757C0.316071 2.30018 0 3.06324 0 3.85889V13.8589C0 14.6545 0.316071 15.4176 0.87868 15.9802C1.44129 16.5428 2.20435 16.8589 3 16.8589H17C17.7957 16.8589 18.5587 16.5428 19.1213 15.9802C19.6839 15.4176 20 14.6545 20 13.8589V3.85889C20 3.06324 19.6839 2.30018 19.1213 1.73757C18.5587 1.17496 17.7957 0.858887 17 0.858887ZM3 2.85889H17C17.2652 2.85889 17.5196 2.96424 17.7071 3.15178C17.8946 3.33932 18 3.59367 18 3.85889L10 8.73889L2 3.85889C2 3.59367 2.10536 3.33932 2.29289 3.15178C2.48043 2.96424 2.73478 2.85889 3 2.85889ZM18 13.8589C18 14.1241 17.8946 14.3785 17.7071 14.566C17.5196 14.7535 17.2652 14.8589 17 14.8589H3C2.73478 14.8589 2.48043 14.7535 2.29289 14.566C2.10536 14.3785 2 14.1241 2 13.8589V6.13889L9.48 10.7089C9.63202 10.7967 9.80446 10.8429 9.98 10.8429C10.1555 10.8429 10.328 10.7967 10.48 10.7089L18 6.13889V13.8589Z" fill="#137EC1"/>
</svg>
