<svg width="41" height="41" viewBox="0 0 41 41" fill="none" xmlns="http://www.w3.org/2000/svg">
<rect x="0.234375" y="0.684814" width="40" height="40" rx="20" fill="#3B5998"/>
<path d="M17.9017 15.4508C17.9017 15.8822 17.9017 17.8077 17.9017 17.8077H16.1255V20.6898H17.9017V29.2543H21.5501V20.69H23.9985C23.9985 20.69 24.2278 19.3081 24.3389 17.7971C24.0202 17.7971 21.5639 17.7971 21.5639 17.7971C21.5639 17.7971 21.5639 16.1204 21.5639 15.8265C21.5639 15.532 21.9617 15.1358 22.3549 15.1358C22.7473 15.1358 23.5756 15.1358 24.3427 15.1358C24.3427 14.7434 24.3427 13.3876 24.3427 12.1354C23.3186 12.1354 22.1535 12.1354 21.64 12.1354C17.8115 12.1352 17.9017 15.0201 17.9017 15.4508Z" fill="white"/>
</svg>
