<svg width="21" height="20" viewBox="0 0 21 20" fill="none" xmlns="http://www.w3.org/2000/svg">
<path d="M19.1246 2.83076C18.0629 1.76877 16.6554 1.12309 15.1579 1.01114C13.6604 0.899197 12.1724 1.32842 10.9646 2.22076C9.69229 1.2744 8.10862 0.845272 6.53255 1.0198C4.95648 1.19432 3.50507 1.95954 2.4706 3.16135C1.43614 4.36315 0.895453 5.91228 0.957432 7.49678C1.01941 9.08127 1.67945 10.5834 2.80463 11.7008L10.2546 19.1508C10.3476 19.2445 10.4582 19.3189 10.5801 19.3697C10.7019 19.4204 10.8326 19.4466 10.9646 19.4466C11.0966 19.4466 11.2273 19.4204 11.3492 19.3697C11.4711 19.3189 11.5817 19.2445 11.6746 19.1508L19.1246 11.7008C19.7073 11.1185 20.1695 10.4271 20.4848 9.66613C20.8002 8.90515 20.9625 8.08949 20.9625 7.26576C20.9625 6.44203 20.8002 5.62637 20.4848 4.86539C20.1695 4.10442 19.7073 3.41304 19.1246 2.83076ZM17.7146 10.2908L10.9646 17.0308L4.21463 10.2908C3.61981 9.69346 3.21461 8.93381 3.04986 8.1071C2.88512 7.28039 2.96816 6.42344 3.28858 5.64375C3.609 4.86406 4.15253 4.19635 4.85098 3.72438C5.54943 3.25241 6.37169 2.9972 7.21463 2.99076C8.34074 2.99352 9.41973 3.4431 10.2146 4.24076C10.3076 4.33449 10.4182 4.40888 10.5401 4.45965C10.6619 4.51042 10.7926 4.53656 10.9246 4.53656C11.0566 4.53656 11.1873 4.51042 11.3092 4.45965C11.4311 4.40888 11.5417 4.33449 11.6346 4.24076C12.453 3.53164 13.5101 3.15991 14.5922 3.20079C15.6742 3.24167 16.7003 3.69211 17.4628 4.46095C18.2253 5.22979 18.6672 6.2596 18.6991 7.34195C18.731 8.4243 18.3505 9.47835 17.6346 10.2908H17.7146Z" fill="#6E6E6E"/>
</svg>
