<svg width="17" height="14" viewBox="0 0 17 14" fill="none" xmlns="http://www.w3.org/2000/svg">
<path d="M2.99657 8.21416C3.32985 7.88088 3.49653 7.47593 3.49653 6.99983C3.49653 6.52355 3.32985 6.11885 2.99648 5.78557C2.66317 5.45233 2.25841 5.28564 1.78219 5.28564C1.3059 5.28564 0.901199 5.45223 0.567799 5.7856M2.99657 8.21416L2.90821 8.12575M2.99657 8.21416C2.66317 8.5474 2.25844 8.71402 1.78231 8.71402C1.30609 8.71402 0.901292 8.5474 0.567924 8.21416M2.99657 8.21416L2.90818 8.12577M2.90821 8.12575C3.21775 7.81619 3.37153 7.44316 3.37153 6.99983C3.37153 6.55633 3.21775 6.18354 2.9081 5.87397L2.9081 5.87397C2.5985 5.56443 2.22564 5.41064 1.78219 5.41064C1.33867 5.41064 0.965872 5.56434 0.656187 5.87399M2.90821 8.12575C2.9082 8.12576 2.90819 8.12576 2.90818 8.12577M2.90821 8.12575C2.9082 8.12576 2.90819 8.12576 2.90818 8.12577M0.656187 5.87399L0.567799 5.7856M0.656187 5.87399C0.656186 5.87399 0.656184 5.87399 0.656183 5.874L0.567799 5.7856M0.656187 5.87399C0.346652 6.18353 0.192871 6.55632 0.192871 6.99983C0.192871 7.44313 0.346654 7.81616 0.656296 8.12575L0.567924 8.21416M0.567799 5.7856C0.234555 6.11885 0.0678711 6.52355 0.0678711 6.99983C0.0678711 7.4759 0.234555 7.88085 0.567924 8.21416M0.567924 8.21416L0.656304 8.12576C0.96596 8.4353 1.33885 8.58902 1.78231 8.58902C2.22566 8.58902 2.59849 8.43531 2.90818 8.12577" fill="white" stroke="white" stroke-width="0.25"/>
<path d="M0.656415 10.4453C0.656426 10.4453 0.656437 10.4453 0.656448 10.4453C0.966143 10.1357 1.33894 9.98193 1.78243 9.98193C2.22594 9.98193 2.59876 10.1357 2.90829 10.4453L0.656415 10.4453ZM0.656415 10.4453C0.346881 10.755 0.193115 11.1278 0.193115 11.5712C0.193115 12.0146 0.346806 12.3875 0.656419 12.6971C0.966075 13.0067 1.33897 13.1604 1.78243 13.1604C2.22577 13.1604 2.5986 13.0067 2.90829 12.6971C2.9083 12.6971 2.90831 12.6971 2.90832 12.6971M0.656415 10.4453L3.49665 11.5712C3.49665 12.0474 3.32997 12.4521 2.99669 12.7855L2.90832 12.6971M2.90832 12.6971C3.21788 12.3874 3.37165 12.0146 3.37165 11.5712C3.37165 11.1277 3.21788 10.7549 2.9083 10.4453L2.90832 12.6971Z" fill="white" stroke="white" stroke-width="0.25"/>
<path d="M2.90867 1.30215L2.90867 1.30215C2.59916 0.992637 2.22634 0.838989 1.7828 0.838989C1.33924 0.838989 0.966334 0.992642 0.656793 1.30215C0.347245 1.61192 0.193481 1.98479 0.193481 2.42802C0.193481 2.87168 0.347162 3.24432 0.656785 3.55407C0.966442 3.86364 1.33933 4.01737 1.7828 4.01737C2.22613 4.01737 2.59896 3.86366 2.90864 3.55411C2.90866 3.5541 2.90867 3.55408 2.90869 3.55407M2.90867 1.30215L0.568409 1.21376C0.901684 0.880518 1.30651 0.713989 1.7828 0.713989C2.25908 0.713989 2.66381 0.880518 2.99706 1.21376C3.33033 1.54701 3.49702 1.95196 3.49702 2.42802C3.49702 2.90447 3.33033 3.30901 2.99706 3.64247L2.90869 3.55407M2.90867 1.30215C3.21823 1.61168 3.37202 1.98472 3.37202 2.42802C3.37202 2.87166 3.21826 3.2443 2.90869 3.55407M2.90867 1.30215L2.90869 3.55407" fill="white" stroke="white" stroke-width="0.25"/>
<path d="M15.7824 10.5533C15.8254 10.5533 15.8608 10.5675 15.8951 10.6015C15.9289 10.6354 15.9431 10.6709 15.9431 10.7139C15.9431 10.7139 15.9431 10.714 15.9431 10.714V12.4283C15.9431 12.4714 15.929 12.5068 15.895 12.5409C15.861 12.5747 15.8256 12.5889 15.7824 12.5889H4.9252C4.88222 12.5889 4.84665 12.5747 4.81263 12.5407L4.72434 12.6292L4.81287 12.541C4.7787 12.5067 4.76453 12.4712 4.76453 12.4283V10.7139C4.76453 10.671 4.77871 10.6355 4.81285 10.6013L4.72434 10.513L4.81268 10.6015C4.84661 10.5676 4.88215 10.5533 4.9252 10.5533H15.7824Z" fill="white" stroke="white" stroke-width="0.25"/>
<path d="M4.81273 6.03013L4.81282 6.03004C4.84666 5.99612 4.88211 5.98193 4.9252 5.98193H15.7824C15.8254 5.98193 15.8609 5.9961 15.8951 6.03028C15.9289 6.06394 15.9431 6.0995 15.9431 6.14261V7.85696C15.9431 7.90001 15.929 7.93545 15.8951 7.96932L15.8949 7.96945C15.861 8.00348 15.8256 8.01763 15.7824 8.01763H4.9252C4.8822 8.01763 4.84673 8.00345 4.81282 7.96947L4.81275 7.9694C4.77875 7.93538 4.76453 7.89985 4.76453 7.85696V6.14261C4.76453 6.09963 4.77877 6.06409 4.81273 6.03013Z" fill="white" stroke="white" stroke-width="0.25"/>
<path d="M15.9431 3.28539C15.9431 3.32856 15.929 3.36392 15.8951 3.3979L15.7824 1.4104C15.8252 1.4104 15.8608 1.42462 15.8952 1.45891L15.9834 1.37028L15.8951 1.45876C15.9289 1.49245 15.9431 1.52803 15.9431 1.57105V3.28539Z" fill="white" stroke="white" stroke-width="0.25"/>
</svg>
