<?xml version="1.0" encoding="utf-8"?>
<!-- Generator: Adobe Illustrator 16.0.0, SVG Export Plug-In . SVG Version: 6.00 Build 0)  -->
<!DOCTYPE svg PUBLIC "-//W3C//DTD SVG 1.1//EN" "http://www.w3.org/Graphics/SVG/1.1/DTD/svg11.dtd">
<svg version="1.1" id="Layer_1" xmlns="http://www.w3.org/2000/svg" xmlns:xlink="http://www.w3.org/1999/xlink" x="0px" y="0px"
	 width="22px" height="22.451px" viewBox="0 0 22 22.451" enable-background="new 0 0 22 22.451" xml:space="preserve">
<path fill-rule="evenodd" clip-rule="evenodd" fill="#273138" d="M18.164,10.718c0,0.226-0.226,0.452-0.451,0.564
	c-1.016,0.451-3.046,1.354-3.272,1.354c-0.677,0-0.677-0.677-0.677-0.79c0-0.226,0-0.451,0.338-0.564
	c1.016-0.564,3.046-1.354,3.385-1.354C17.938,9.928,18.164,10.492,18.164,10.718z M10.154,9.59v10.943L1.58,17.036V6.205
	L10.154,9.59z M20.533,17.036l-8.687,3.61V9.703l8.687-3.61V17.036z M19.18,4.851l-8.236,3.385L2.82,4.851l8.123-3.271L19.18,4.851z
	 M13.426,0.79c2.708,1.016,5.415,2.144,8.123,3.498C21.662,4.4,22,4.738,22,5.077v12.185c-0.113,0.451-0.451,0.902-0.79,1.015
	c-3.385,1.58-9.928,4.174-10.267,4.174c-0.226,0-2.031-0.677-2.82-1.128C6.431,20.646,0,18.502,0,17.262V5.19
	c0.113-0.339,0.338-1.016,0.79-1.128C4.062,2.482,10.718,0,10.943,0C11.282,0,12.636,0.564,13.426,0.79z"/>
</svg>
