<svg width="17" height="18" viewBox="0 0 17 18" fill="none" xmlns="http://www.w3.org/2000/svg">
<path d="M4.83333 12.3333C5.16485 12.3333 5.4828 12.2016 5.71722 11.9672C5.95164 11.7328 6.08333 11.4148 6.08333 11.0833C6.0874 11.0417 6.0874 10.9999 6.08333 10.9583L8.40833 8.63329H8.6H8.79167L10.1333 9.97496C10.1333 9.97496 10.1333 10.0166 10.1333 10.0416C10.1333 10.3731 10.265 10.6911 10.4994 10.9255C10.7339 11.1599 11.0518 11.2916 11.3833 11.2916C11.7149 11.2916 12.0328 11.1599 12.2672 10.9255C12.5016 10.6911 12.6333 10.3731 12.6333 10.0416V9.97496L15.6667 6.91663C15.9139 6.91663 16.1556 6.84332 16.3611 6.70596C16.5667 6.56861 16.7269 6.37339 16.8215 6.14498C16.9161 5.91657 16.9409 5.66524 16.8926 5.42276C16.8444 5.18029 16.7254 4.95756 16.5505 4.78274C16.3757 4.60793 16.153 4.48888 15.9105 4.44064C15.6681 4.39241 15.4167 4.41717 15.1883 4.51178C14.9599 4.60639 14.7647 4.7666 14.6273 4.97216C14.49 5.17772 14.4167 5.4194 14.4167 5.66663C14.4126 5.70819 14.4126 5.75006 14.4167 5.79163L11.4083 8.79996H11.275L9.83333 7.33329C9.83333 7.00177 9.70164 6.68383 9.46722 6.44941C9.2328 6.21499 8.91485 6.08329 8.58333 6.08329C8.25181 6.08329 7.93387 6.21499 7.69945 6.44941C7.46503 6.68383 7.33333 7.00177 7.33333 7.33329L4.83333 9.83329C4.50181 9.83329 4.18387 9.96499 3.94945 10.1994C3.71503 10.4338 3.58333 10.7518 3.58333 11.0833C3.58333 11.4148 3.71503 11.7328 3.94945 11.9672C4.18387 12.2016 4.50181 12.3333 4.83333 12.3333ZM16.0833 15.6666H1.91667V1.49996C1.91667 1.27895 1.82887 1.06698 1.67259 0.910704C1.51631 0.754423 1.30435 0.666626 1.08333 0.666626C0.86232 0.666626 0.650358 0.754423 0.494078 0.910704C0.337797 1.06698 0.25 1.27895 0.25 1.49996V16.5C0.25 16.721 0.337797 16.9329 0.494078 17.0892C0.650358 17.2455 0.86232 17.3333 1.08333 17.3333H16.0833C16.3043 17.3333 16.5163 17.2455 16.6726 17.0892C16.8289 16.9329 16.9167 16.721 16.9167 16.5C16.9167 16.2789 16.8289 16.067 16.6726 15.9107C16.5163 15.7544 16.3043 15.6666 16.0833 15.6666Z" fill="#6E6E6E"/>
</svg>
