<?xml version="1.0" encoding="utf-8"?>
<!-- Generator: Adobe Illustrator 16.0.0, SVG Export Plug-In . SVG Version: 6.00 Build 0)  -->
<!DOCTYPE svg PUBLIC "-//W3C//DTD SVG 1.1//EN" "http://www.w3.org/Graphics/SVG/1.1/DTD/svg11.dtd">
<svg version="1.1" id="Layer_1" xmlns="http://www.w3.org/2000/svg" xmlns:xlink="http://www.w3.org/1999/xlink" x="0px" y="0px"
	 width="15.345px" height="12.371px" viewBox="0.86 0.237 15.345 12.371" enable-background="new 0.86 0.237 15.345 12.371"
	 xml:space="preserve">
<path fill="#9FA5AC" d="M5.399,9.556C4.365,8.521,3.945,7.084,4.155,5.728l1.551,0.517L4.559,1.576L0.86,4.646l1.615,0.533
	c-0.404,1.97,0.162,4.103,1.68,5.621c1.825,1.826,4.507,2.262,6.735,1.342l-0.42-1.729C8.824,11.219,6.772,10.929,5.399,9.556z"/>
<path fill="#9FA5AC" d="M14.59,7.666c0.404-1.971-0.162-4.103-1.68-5.621C11.084,0.22,8.403-0.217,6.174,0.704l0.42,1.729
	c1.647-0.808,3.699-0.517,5.072,0.856c1.033,1.034,1.454,2.471,1.244,3.829L11.359,6.6l1.146,4.668l3.699-3.068L14.59,7.666z"/>
</svg>
