<svg width="10" height="14" viewBox="0 0 10 14" fill="none" xmlns="http://www.w3.org/2000/svg">
<path d="M8.21764 8.71745L5.00014 11.9425L1.78264 8.71745C1.64141 8.57623 1.44987 8.49689 1.25014 8.49689C1.05041 8.49689 0.858867 8.57623 0.717639 8.71745C0.576411 8.85868 0.49707 9.05023 0.49707 9.24995C0.49707 9.44968 0.576411 9.64123 0.717639 9.78245L4.46764 13.5325C4.53736 13.6027 4.62031 13.6585 4.71171 13.6966C4.8031 13.7347 4.90113 13.7543 5.00014 13.7543C5.09915 13.7543 5.19718 13.7347 5.28857 13.6966C5.37997 13.6585 5.46292 13.6027 5.53264 13.5325L9.28264 9.78245C9.35257 9.71253 9.40804 9.62951 9.44588 9.53814C9.48373 9.44678 9.50321 9.34885 9.50321 9.24995C9.50321 9.15106 9.48373 9.05313 9.44588 8.96177C9.40804 8.8704 9.35257 8.78738 9.28264 8.71745C9.21271 8.64752 9.12969 8.59205 9.03832 8.55421C8.94696 8.51636 8.84903 8.49689 8.75014 8.49689C8.65124 8.49689 8.55332 8.51636 8.46195 8.55421C8.37058 8.59205 8.28757 8.64752 8.21764 8.71745ZM1.78264 5.28245L5.00014 2.05745L8.21764 5.28245C8.28736 5.35275 8.37031 5.40855 8.46171 5.44662C8.5531 5.4847 8.65113 5.5043 8.75014 5.5043C8.84915 5.5043 8.94718 5.4847 9.03857 5.44662C9.12996 5.40855 9.21292 5.35275 9.28264 5.28245C9.35293 5.21273 9.40873 5.12978 9.44681 5.03839C9.48488 4.94699 9.50449 4.84896 9.50449 4.74995C9.50449 4.65095 9.48488 4.55292 9.44681 4.46152C9.40873 4.37013 9.35293 4.28718 9.28264 4.21745L5.53264 0.467454C5.46292 0.397158 5.37997 0.341362 5.28857 0.303286C5.19718 0.265209 5.09915 0.245605 5.00014 0.245605C4.90113 0.245605 4.8031 0.265209 4.71171 0.303286C4.62031 0.341362 4.53736 0.397158 4.46764 0.467454L0.717639 4.21745C0.576411 4.35868 0.49707 4.55023 0.49707 4.74995C0.49707 4.94968 0.576411 5.14123 0.717639 5.28245C0.858867 5.42368 1.05041 5.50302 1.25014 5.50302C1.44987 5.50302 1.64141 5.42368 1.78264 5.28245Z" fill="#C2C6CB"/>
</svg>
