<svg width="21" height="21" viewBox="0 0 21 21" fill="none" xmlns="http://www.w3.org/2000/svg">
<path d="M13.8694 11.1127C14.6864 10.4699 15.2827 9.58845 15.5754 8.59097C15.8681 7.59349 15.8426 6.52957 15.5025 5.54724C15.1624 4.56491 14.5246 3.71301 13.6778 3.11007C12.8309 2.50712 11.8173 2.18311 10.7777 2.18311C9.73816 2.18311 8.72447 2.50712 7.87765 3.11007C7.03083 3.71301 6.39299 4.56491 6.05288 5.54724C5.71277 6.52957 5.6873 7.59349 5.98001 8.59097C6.27272 9.58845 6.86905 10.4699 7.68604 11.1127C6.28611 11.6736 5.06461 12.6038 4.15178 13.8043C3.23896 15.0048 2.66901 16.4304 2.50271 17.9294C2.49067 18.0388 2.5003 18.1495 2.53106 18.2552C2.56182 18.3609 2.6131 18.4596 2.68197 18.5455C2.82106 18.7189 3.02336 18.83 3.24437 18.8544C3.46539 18.8787 3.68701 18.8142 3.86048 18.6751C4.03395 18.536 4.14506 18.3337 4.16937 18.1127C4.35236 16.4837 5.12911 14.9792 6.35122 13.8867C7.57333 12.7942 9.15512 12.1902 10.7944 12.1902C12.4336 12.1902 14.0154 12.7942 15.2375 13.8867C16.4596 14.9792 17.2364 16.4837 17.4194 18.1127C17.442 18.3175 17.5397 18.5066 17.6936 18.6435C17.8475 18.7805 18.0467 18.8556 18.2527 18.8544H18.3444C18.5628 18.8292 18.7625 18.7188 18.8998 18.5471C19.0372 18.3754 19.1011 18.1563 19.0777 17.9377C18.9106 16.4345 18.3376 15.0052 17.4201 13.8029C16.5026 12.6005 15.2751 11.6706 13.8694 11.1127ZM10.7777 10.521C10.1184 10.521 9.47397 10.3255 8.92581 9.95925C8.37764 9.59298 7.9504 9.07238 7.69811 8.4633C7.44582 7.85421 7.37981 7.18399 7.50842 6.53738C7.63704 5.89078 7.95451 5.29684 8.42068 4.83066C8.88686 4.36449 9.4808 4.04702 10.1274 3.9184C10.774 3.78978 11.4442 3.85579 12.0533 4.10809C12.6624 4.36038 13.183 4.78762 13.5493 5.33578C13.9155 5.88395 14.111 6.52841 14.111 7.18769C14.111 8.07174 13.7599 8.91959 13.1347 9.54471C12.5096 10.1698 11.6618 10.521 10.7777 10.521Z" fill="#137EC1"/>
</svg>
