<svg width="25" height="25" viewBox="0 0 25 25" fill="none" xmlns="http://www.w3.org/2000/svg">
<path d="M13.4682 12.741C14.0018 12.2791 14.4298 11.7079 14.7231 11.066C15.0164 10.4242 15.1682 9.72671 15.1682 9.021C15.1682 7.69491 14.6414 6.42314 13.7037 5.48546C12.7661 4.54778 11.4943 4.021 10.1682 4.021C8.84213 4.021 7.57036 4.54778 6.63268 5.48546C5.695 6.42314 5.16821 7.69491 5.16821 9.021C5.16821 9.72671 5.32001 10.4242 5.61334 11.066C5.90666 11.7079 6.33464 12.2791 6.86821 12.741C5.46835 13.3749 4.28068 14.3985 3.44719 15.6895C2.61371 16.9806 2.16968 18.4843 2.16821 20.021C2.16821 20.2862 2.27357 20.5406 2.46111 20.7281C2.64864 20.9156 2.903 21.021 3.16821 21.021C3.43343 21.021 3.68778 20.9156 3.87532 20.7281C4.06286 20.5406 4.16821 20.2862 4.16821 20.021C4.16821 18.4297 4.80035 16.9036 5.92557 15.7784C7.05079 14.6531 8.57691 14.021 10.1682 14.021C11.7595 14.021 13.2856 14.6531 14.4109 15.7784C15.5361 16.9036 16.1682 18.4297 16.1682 20.021C16.1682 20.2862 16.2736 20.5406 16.4611 20.7281C16.6486 20.9156 16.903 21.021 17.1682 21.021C17.4334 21.021 17.6878 20.9156 17.8753 20.7281C18.0629 20.5406 18.1682 20.2862 18.1682 20.021C18.1667 18.4843 17.7227 16.9806 16.8892 15.6895C16.0557 14.3985 14.8681 13.3749 13.4682 12.741ZM10.1682 12.021C9.57487 12.021 8.99485 11.845 8.5015 11.5154C8.00815 11.1858 7.62364 10.7172 7.39657 10.169C7.16951 9.62087 7.1101 9.01767 7.22586 8.43573C7.34161 7.85378 7.62734 7.31923 8.04689 6.89968C8.46645 6.48012 9.001 6.1944 9.58294 6.07864C10.1649 5.96288 10.7681 6.02229 11.3163 6.24936C11.8644 6.47642 12.333 6.86094 12.6626 7.35429C12.9923 7.84763 13.1682 8.42765 13.1682 9.021C13.1682 9.81665 12.8521 10.5797 12.2895 11.1423C11.7269 11.7049 10.9639 12.021 10.1682 12.021ZM21.8782 9.651C21.7852 9.55727 21.6746 9.48287 21.5528 9.43211C21.4309 9.38134 21.3002 9.3552 21.1682 9.3552C21.0362 9.3552 20.9055 9.38134 20.7836 9.43211C20.6618 9.48287 20.5512 9.55727 20.4582 9.651L18.4582 11.651L17.8382 11.021C17.7452 10.9273 17.6346 10.8529 17.5128 10.8021C17.3909 10.7513 17.2602 10.7252 17.1282 10.7252C16.9962 10.7252 16.8655 10.7513 16.7436 10.8021C16.6218 10.8529 16.5112 10.9273 16.4182 11.021C16.232 11.2084 16.1274 11.4618 16.1274 11.726C16.1274 11.9902 16.232 12.2436 16.4182 12.431L17.7582 13.771C17.9456 13.9572 18.199 14.0618 18.4632 14.0618C18.7274 14.0618 18.9809 13.9572 19.1682 13.771L21.8382 11.101C21.9392 11.0103 22.0206 10.9 22.0776 10.7769C22.1346 10.6537 22.1659 10.5202 22.1696 10.3846C22.1734 10.2489 22.1495 10.1139 22.0994 9.98782C22.0493 9.8617 21.974 9.7471 21.8782 9.651Z" fill="#137EC1"/>
</svg>
