<svg width="25" height="25" viewBox="0 0 25 25" fill="none" xmlns="http://www.w3.org/2000/svg">
<path d="M14.8907 12.741C15.4243 12.2791 15.8523 11.7079 16.1456 11.066C16.4389 10.4242 16.5908 9.72671 16.5907 9.021C16.5907 7.69491 16.064 6.42314 15.1263 5.48546C14.1886 4.54778 12.9168 4.021 11.5907 4.021C10.2647 4.021 8.9929 4.54778 8.05521 5.48546C7.11753 6.42314 6.59075 7.69491 6.59075 9.021C6.59692 9.73058 6.75651 10.4304 7.05858 11.0725C7.36065 11.7146 7.79804 12.2838 8.34075 12.741C6.94089 13.3749 5.75321 14.3985 4.91973 15.6895C4.08624 16.9806 3.64222 18.4843 3.64075 20.021C3.64075 20.2862 3.7461 20.5406 3.93364 20.7281C4.12118 20.9156 4.37553 21.021 4.64075 21.021C4.90596 21.021 5.16032 20.9156 5.34785 20.7281C5.53539 20.5406 5.64075 20.2862 5.64075 20.021C5.64075 18.4297 6.27289 16.9036 7.39811 15.7784C8.52332 14.6531 10.0494 14.021 11.6407 14.021C13.232 14.021 14.7582 14.6531 15.8834 15.7784C17.0086 16.9036 17.6407 18.4297 17.6407 20.021C17.6407 20.2862 17.7461 20.5406 17.9336 20.7281C18.1212 20.9156 18.3755 21.021 18.6407 21.021C18.906 21.021 19.1603 20.9156 19.3479 20.7281C19.5354 20.5406 19.6407 20.2862 19.6407 20.021C19.6349 18.4788 19.1835 16.9712 18.3408 15.6796C17.498 14.388 16.3 13.3675 14.8907 12.741ZM11.5907 12.021C10.9974 12.021 10.4174 11.845 9.92404 11.5154C9.43069 11.1858 9.04617 10.7172 8.81911 10.169C8.59205 9.62087 8.53264 9.01767 8.64839 8.43573C8.76415 7.85378 9.04987 7.31923 9.46943 6.89968C9.88898 6.48012 10.4235 6.1944 11.0055 6.07864C11.5874 5.96288 12.1906 6.02229 12.7388 6.24936C13.287 6.47642 13.7555 6.86094 14.0852 7.35429C14.4148 7.84763 14.5907 8.42765 14.5907 9.021C14.5907 9.81665 14.2747 10.5797 13.7121 11.1423C13.1495 11.7049 12.3864 12.021 11.5907 12.021ZM20.0907 7.021C19.8255 7.021 19.5712 7.12635 19.3836 7.31389C19.1961 7.50143 19.0907 7.75578 19.0907 8.021V10.021C19.0907 10.2862 19.1961 10.5406 19.3836 10.7281C19.5712 10.9156 19.8255 11.021 20.0907 11.021C20.356 11.021 20.6103 10.9156 20.7979 10.7281C20.9854 10.5406 21.0907 10.2862 21.0907 10.021V8.021C21.0907 7.75578 20.9854 7.50143 20.7979 7.31389C20.6103 7.12635 20.356 7.021 20.0907 7.021ZM19.3407 12.311C19.158 12.5026 19.0544 12.7562 19.0507 13.021C19.05 13.1526 19.0752 13.2831 19.125 13.4049C19.1747 13.5267 19.2481 13.6376 19.3407 13.731C19.4379 13.8193 19.5496 13.8904 19.6707 13.941C19.7904 13.9939 19.9199 14.0212 20.0507 14.0212C20.1816 14.0212 20.311 13.9939 20.4307 13.941C20.5548 13.8961 20.6675 13.8244 20.7609 13.7311C20.8542 13.6378 20.9258 13.5251 20.9707 13.401C21.0267 13.2823 21.0541 13.1522 21.0507 13.021C21.0519 12.8224 20.9939 12.6279 20.8841 12.4624C20.7743 12.2969 20.6177 12.1678 20.4342 12.0916C20.2508 12.0155 20.0488 11.9956 19.8541 12.0347C19.6593 12.0738 19.4806 12.17 19.3407 12.311Z" fill="#137EC1"/>
</svg>
