<svg width="28" height="28" viewBox="0 0 28 28" fill="none" xmlns="http://www.w3.org/2000/svg">
<path d="M19.4697 0.485352H8.52979C4.0837 0.485352 0.466553 4.08963 0.466553 8.51989V19.4209C0.466553 23.8512 4.0837 27.4554 8.52979 27.4554H19.4697C23.9158 27.4554 27.533 23.8512 27.533 19.4209V8.51989C27.5329 4.08963 23.9158 0.485352 19.4697 0.485352ZM24.8101 19.4209C24.8101 22.3598 22.4191 24.7423 19.4697 24.7423H8.52979C5.58042 24.7423 3.18943 22.3598 3.18943 19.4209V8.51989C3.18943 5.58097 5.58042 3.19854 8.52979 3.19854H19.4697C22.4191 3.19854 24.8101 5.58097 24.8101 8.51989V19.4209Z" fill="url(#paint0_linear)"/>
<path d="M14.0001 6.99512C10.1401 6.99512 6.99976 10.1243 6.99976 13.9705C6.99976 17.8167 10.1401 20.946 14.0001 20.946C17.8601 20.946 21.0004 17.8168 21.0004 13.9705C21.0004 10.1242 17.8601 6.99512 14.0001 6.99512ZM14.0001 18.2328C11.6377 18.2328 9.72264 16.3246 9.72264 13.9706C9.72264 11.6166 11.6378 9.70831 14.0001 9.70831C16.3625 9.70831 18.2776 11.6166 18.2776 13.9706C18.2776 16.3245 16.3624 18.2328 14.0001 18.2328Z" fill="url(#paint1_linear)"/>
<path d="M21.0145 8.71887C21.9409 8.71887 22.6919 7.97054 22.6919 7.04742C22.6919 6.12431 21.9409 5.37598 21.0145 5.37598C20.088 5.37598 19.337 6.12431 19.337 7.04742C19.337 7.97054 20.088 8.71887 21.0145 8.71887Z" fill="url(#paint2_linear)"/>
<defs>
<linearGradient id="paint0_linear" x1="13.9998" y1="27.3769" x2="13.9998" y2="0.694833" gradientUnits="userSpaceOnUse">
<stop stop-color="#E09B3D"/>
<stop offset="0.3" stop-color="#C74C4D"/>
<stop offset="0.6" stop-color="#C21975"/>
<stop offset="1" stop-color="#7024C4"/>
</linearGradient>
<linearGradient id="paint1_linear" x1="14.0001" y1="27.3771" x2="14.0001" y2="0.694964" gradientUnits="userSpaceOnUse">
<stop stop-color="#E09B3D"/>
<stop offset="0.3" stop-color="#C74C4D"/>
<stop offset="0.6" stop-color="#C21975"/>
<stop offset="1" stop-color="#7024C4"/>
</linearGradient>
<linearGradient id="paint2_linear" x1="21.0145" y1="27.3769" x2="21.0145" y2="0.694945" gradientUnits="userSpaceOnUse">
<stop stop-color="#E09B3D"/>
<stop offset="0.3" stop-color="#C74C4D"/>
<stop offset="0.6" stop-color="#C21975"/>
<stop offset="1" stop-color="#7024C4"/>
</linearGradient>
</defs>
</svg>
